{
	"asset":{
		"generator":"Khronos glTF Blender I/O v3.5.30",
		"version":"2.0"
	},
	"extensionsUsed":[
		"KHR_materials_specular",
		"KHR_materials_ior"
	],
	"scene":0,
	"scenes":[
		{
			"name":"Scene",
			"nodes":[
				0
			]
		}
	],
	"nodes":[
		{
			"mesh":0,
			"name":"Plane.004",
			"rotation":[
				-0.9659258127212524,
				0,
				0,
				0.2588190734386444
			],
			"scale":[
				1.266385793685913,
				1.5829821825027466,
				1.5829821825027466
			]
		}
	],
	"materials":[
		{
			"doubleSided":true,
			"extensions":{
				"KHR_materials_specular":{
					"specularColorFactor":[
						2.371357614441398,
						2.371357614441398,
						2.371357614441398
					]
				},
				"KHR_materials_ior":{
					"ior":1.4500000476837158
				}
			},
			"name":"Material.003",
			"normalTexture":{
				"index":0,
				"scale":2
			},
			"pbrMetallicRoughness":{
				"baseColorTexture":{
					"index":1
				},
				"metallicFactor":0,
				"roughnessFactor":0.5
			}
		},
		{
			"doubleSided":true,
			"name":"Material.004",
			"pbrMetallicRoughness":{
				"baseColorTexture":{
					"index":2
				},
				"metallicFactor":0,
				"roughnessFactor":0.5
			}
		},
		{
			"doubleSided":true,
			"extensions":{
				"KHR_materials_specular":{
					"specularColorFactor":[
						2.371357614441398,
						2.371357614441398,
						2.371357614441398
					]
				},
				"KHR_materials_ior":{
					"ior":1.4500000476837158
				}
			},
			"name":"Material.001",
			"normalTexture":{
				"index":3,
				"scale":2
			},
			"pbrMetallicRoughness":{
				"baseColorTexture":{
					"index":4
				},
				"metallicFactor":0,
				"roughnessFactor":0.5
			}
		}
	],
	"meshes":[
		{
			"name":"Plane.004",
			"primitives":[
				{
					"attributes":{
						"POSITION":0,
						"TEXCOORD_0":1,
						"NORMAL":2
					},
					"indices":3,
					"material":0
				},
				{
					"attributes":{
						"POSITION":4,
						"TEXCOORD_0":5,
						"NORMAL":6
					},
					"indices":7,
					"material":1
				},
				{
					"attributes":{
						"POSITION":8,
						"TEXCOORD_0":9,
						"NORMAL":10
					},
					"indices":11,
					"material":2
				}
			]
		}
	],
	"textures":[
		{
			"sampler":0,
			"source":0
		},
		{
			"sampler":0,
			"source":1
		},
		{
			"sampler":0,
			"source":2
		},
		{
			"sampler":0,
			"source":0
		},
		{
			"sampler":0,
			"source":2
		}
	],
	"images":[
		{
			"mimeType":"image/jpeg",
			"name":"worn-shiny-metal-Normal-ogl",
			"uri":"Textures/worn-shiny-metal-Normal-ogl.jpg"
		},
		{
			"mimeType":"image/jpeg",
			"name":"orange_metal_texture_red2",
			"uri":"Textures/orange_metal_texture_red2.jpg"
		},
		{
			"mimeType":"image/jpeg",
			"name":"worn-shiny-metal-albedo",
			"uri":"Textures/worn-shiny-metal-albedo.jpg"
		}
	],
	"accessors":[
		{
			"bufferView":0,
			"componentType":5126,
			"count":5924,
			"max":[
				0.28847211599349976,
				0.10400569438934326,
				0.08409905433654785
			],
			"min":[
				-0.28847211599349976,
				-0.7040061950683594,
				-1.0840988159179688
			],
			"type":"VEC3"
		},
		{
			"bufferView":1,
			"componentType":5126,
			"count":5924,
			"type":"VEC2"
		},
		{
			"bufferView":2,
			"componentType":5126,
			"count":5924,
			"type":"VEC3"
		},
		{
			"bufferView":3,
			"componentType":5123,
			"count":30144,
			"type":"SCALAR"
		},
		{
			"bufferView":4,
			"componentType":5126,
			"count":68,
			"max":[
				0.29827556014060974,
				0.016707956790924072,
				0.01680004596710205
			],
			"min":[
				-0.29827556014060974,
				-0.016708076000213623,
				-0.016432881355285645
			],
			"type":"VEC3"
		},
		{
			"bufferView":5,
			"componentType":5126,
			"count":68,
			"type":"VEC2"
		},
		{
			"bufferView":6,
			"componentType":5126,
			"count":68,
			"type":"VEC3"
		},
		{
			"bufferView":7,
			"componentType":5123,
			"count":168,
			"type":"SCALAR"
		},
		{
			"bufferView":8,
			"componentType":5126,
			"count":1436,
			"max":[
				0.14932307600975037,
				-0.10825613141059875,
				-0.28657007217407227
			],
			"min":[
				-0.14932307600975037,
				-0.4917356073856354,
				-0.7134345769882202
			],
			"type":"VEC3"
		},
		{
			"bufferView":9,
			"componentType":5126,
			"count":1436,
			"type":"VEC2"
		},
		{
			"bufferView":10,
			"componentType":5126,
			"count":1436,
			"type":"VEC3"
		},
		{
			"bufferView":11,
			"componentType":5123,
			"count":7020,
			"type":"SCALAR"
		}
	],
	"bufferViews":[
		{
			"buffer":0,
			"byteLength":71088,
			"byteOffset":0,
			"target":34962
		},
		{
			"buffer":0,
			"byteLength":47392,
			"byteOffset":71088,
			"target":34962
		},
		{
			"buffer":0,
			"byteLength":71088,
			"byteOffset":118480,
			"target":34962
		},
		{
			"buffer":0,
			"byteLength":60288,
			"byteOffset":189568,
			"target":34963
		},
		{
			"buffer":0,
			"byteLength":816,
			"byteOffset":249856,
			"target":34962
		},
		{
			"buffer":0,
			"byteLength":544,
			"byteOffset":250672,
			"target":34962
		},
		{
			"buffer":0,
			"byteLength":816,
			"byteOffset":251216,
			"target":34962
		},
		{
			"buffer":0,
			"byteLength":336,
			"byteOffset":252032,
			"target":34963
		},
		{
			"buffer":0,
			"byteLength":17232,
			"byteOffset":252368,
			"target":34962
		},
		{
			"buffer":0,
			"byteLength":11488,
			"byteOffset":269600,
			"target":34962
		},
		{
			"buffer":0,
			"byteLength":17232,
			"byteOffset":281088,
			"target":34962
		},
		{
			"buffer":0,
			"byteLength":14040,
			"byteOffset":298320,
			"target":34963
		}
	],
	"samplers":[
		{
			"magFilter":9729,
			"minFilter":9987
		}
	],
	"buffers":[
		{
			"byteLength":312360,
			"uri":"arm1.bin"
		}
	]
}
