<?xml version="1.0" encoding="utf-8"?>
<!-- Generator: Adobe Illustrator 19.2.0, SVG Export Plug-In . SVG Version: 6.00 Build 0)  -->
<svg version="1.1" id="Layer_1" xmlns="http://www.w3.org/2000/svg" xmlns:xlink="http://www.w3.org/1999/xlink" x="0px" y="0px"
	 viewBox="0 0 2000 2000" style="enable-background:new 0 0 2000 2000;" xml:space="preserve">
<style type="text/css">
	.st0{opacity:0.6;fill:#09BCE7;}
	.st1{fill:#09BCE7;}
	.st2{fill:#FFFFFF;}
</style>
<polygon class="st0" points="1842.2,1243.2 1845.5,1241.1 1841.1,1231.2 1820.3,1010.3 1894.8,812.9 1789.5,683.3 1761.7,387.5 
	1402.7,257.9 1402.3,257.1 1401.2,257.3 1133.9,160.8 817.2,253 619,205.9 583,321.1 156.5,445.3 204.5,746.1 84.9,866.5 
	471.6,1842.4 754.1,1755.5 877.6,1842 1181,1728.2 1522.7,1798.3 1609.9,1567.3 1863.8,1472.1 "/>
<polygon class="st0" points="1845.5,1241.1 1696.6,1337.7 1609.9,1567.3 1181,1728.2 977.9,1686.5 754.1,1755.5 521.4,1592.9 
	316.5,1448.8 204.5,746.1 495.3,453.1 545.1,442.3 583,321.1 817.2,253 1111.2,320 1402.3,257.1 1470.5,407.7 1588.9,436.4 
	1789.5,683.3 1819.7,1004.2 1783.1,1104.1 "/>
<polygon class="st1" points="1784.4,1105.3 1696.6,1337.7 1323.2,1580.2 977.9,1686.5 521.4,1592.9 327.6,1137.8 545.1,442.3 
	1105,321.4 1470.4,408.2 "/>
<g>
	<path class="st2" d="M529.2,632.3v816.3H317V632.3H529.2z"/>
	<path class="st2" d="M934.9,950.6c5.8,0.7,10.6,1.1,14.6,1.1c3.9,0,7.4,0,10.3,0c26.7,0,48.3-7.9,65-23.8
		c16.6-15.9,24.9-36.4,24.9-61.7c0-24.5-7.8-44.4-23.3-59.5c-15.5-15.2-35.6-22.7-60.1-22.7c-26,0-46.9,8.7-62.8,26
		c-15.9,17.3-23.8,39.7-23.8,67.1h-196c5-42.6,15.7-80.5,31.9-113.7c16.2-33.2,37-61.2,62.2-83.9c25.3-22.8,54.8-40.1,88.8-52
		c33.9-11.9,71.5-17.9,112.6-17.9c40.4,0,77,5.6,109.9,16.8c32.8,11.2,61,27.1,84.5,47.6c23.5,20.6,41.5,45.5,54.1,74.7
		c12.6,29.2,18.9,61.9,18.9,98c0,39-7.4,70.9-22.2,95.8c-14.8,24.9-35.9,46.4-63.3,64.4c41.9,13,74.5,36.3,98,69.8
		c23.5,33.6,35.2,74.9,35.2,124c0,40.4-8,77.2-23.8,110.4c-15.9,33.2-38.1,61.7-66.6,85.5c-28.5,23.8-62.4,42.2-101.8,55.2
		c-39.3,13-82.5,19.5-129.4,19.5c-62.8,0-119.5-12.3-170-36.8c-50.5-24.5-90.9-63.5-121.3-116.9c-13.7-23.8-22.9-47.6-27.6-71.5
		c-4.7-23.8-7-48-7-72.6h210c1.5,38.3,12.6,67.3,33.6,87.2c20.9,19.9,49.1,29.8,84.5,29.8c37.5,0,65-10.1,82.3-30.3
		c17.3-20.2,26-45.1,26-74.7c0-35.4-10.5-62.1-31.4-80.1c-20.9-18-45.9-27.1-74.7-27.1c-7.2,0-14.1,0.6-20.6,1.6s-13.7,2.3-21.7,3.8
		V950.6z"/>
	<path class="st2" d="M1722.9,812.1v636.6h-212.2V812.1h-174.3V632.3h560.8v179.7H1722.9z"/>
</g>
</svg>
