{
	"asset":{
		"generator":"Khronos glTF Blender I/O v3.5.30",
		"version":"2.0"
	},
	"extensionsUsed":[
		"KHR_materials_specular",
		"KHR_materials_ior"
	],
	"scene":0,
	"scenes":[
		{
			"name":"Scene",
			"nodes":[
				0
			]
		}
	],
	"nodes":[
		{
			"mesh":0,
			"name":"Cylinder.015",
			"rotation":[
				-0.7071068286895752,
				0,
				0,
				0.7071068286895752
			]
		}
	],
	"materials":[
		{
			"doubleSided":true,
			"extensions":{
				"KHR_materials_specular":{
					"specularColorFactor":[
						2.371357614441398,
						2.371357614441398,
						2.371357614441398
					]
				},
				"KHR_materials_ior":{
					"ior":1.4500000476837158
				}
			},
			"name":"Material.001",
			"normalTexture":{
				"index":0,
				"scale":2
			},
			"pbrMetallicRoughness":{
				"baseColorTexture":{
					"index":1
				},
				"metallicFactor":0,
				"roughnessFactor":0.5
			}
		},
		{
			"doubleSided":true,
			"name":"Material.004",
			"pbrMetallicRoughness":{
				"baseColorTexture":{
					"index":2
				},
				"metallicFactor":0,
				"roughnessFactor":0.5
			}
		},
		{
			"doubleSided":true,
			"extensions":{
				"KHR_materials_specular":{
					"specularColorFactor":[
						2.371357614441398,
						2.371357614441398,
						2.371357614441398
					]
				},
				"KHR_materials_ior":{
					"ior":1.4500000476837158
				}
			},
			"name":"Material.003",
			"normalTexture":{
				"index":3,
				"scale":2
			},
			"pbrMetallicRoughness":{
				"baseColorTexture":{
					"index":4
				},
				"metallicFactor":0,
				"roughnessFactor":0.5
			}
		}
	],
	"meshes":[
		{
			"name":"Cylinder.016",
			"primitives":[
				{
					"attributes":{
						"POSITION":0,
						"TEXCOORD_0":1,
						"NORMAL":2
					},
					"indices":3,
					"material":0
				},
				{
					"attributes":{
						"POSITION":4,
						"TEXCOORD_0":5,
						"NORMAL":6
					},
					"indices":7,
					"material":1
				},
				{
					"attributes":{
						"POSITION":8,
						"TEXCOORD_0":9,
						"NORMAL":10
					},
					"indices":11,
					"material":2
				}
			]
		}
	],
	"textures":[
		{
			"sampler":0,
			"source":0
		},
		{
			"sampler":0,
			"source":1
		},
		{
			"sampler":0,
			"source":1
		},
		{
			"sampler":0,
			"source":0
		},
		{
			"sampler":0,
			"source":2
		}
	],
	"images":[
		{
			"mimeType":"image/jpeg",
			"name":"worn-shiny-metal-Normal-ogl",
			"uri":"Textures/worn-shiny-metal-Normal-ogl.jpg"
		},
		{
			"mimeType":"image/jpeg",
			"name":"worn-shiny-metal-albedo",
			"uri":"Textures/worn-shiny-metal-albedo.jpg"
		},
		{
			"mimeType":"image/jpeg",
			"name":"orange_metal_texture_red2",
			"uri":"Textures/orange_metal_texture_red2.jpg"
		}
	],
	"accessors":[
		{
			"bufferView":0,
			"componentType":5126,
			"count":1076,
			"max":[
				0.19317232072353363,
				0.9126207232475281,
				0.17585605382919312
			],
			"min":[
				-0.19317230582237244,
				0.4224961996078491,
				-0.46123528480529785
			],
			"type":"VEC3"
		},
		{
			"bufferView":1,
			"componentType":5126,
			"count":1076,
			"type":"VEC2"
		},
		{
			"bufferView":2,
			"componentType":5126,
			"count":1076,
			"type":"VEC3"
		},
		{
			"bufferView":3,
			"componentType":5123,
			"count":4044,
			"type":"SCALAR"
		},
		{
			"bufferView":4,
			"componentType":5126,
			"count":68,
			"max":[
				0.30218562483787537,
				0.026190221309661865,
				0.02633550763130188
			],
			"min":[
				-0.30218562483787537,
				-0.026577889919281006,
				-0.026529237627983093
			],
			"type":"VEC3"
		},
		{
			"bufferView":5,
			"componentType":5126,
			"count":68,
			"type":"VEC2"
		},
		{
			"bufferView":6,
			"componentType":5126,
			"count":68,
			"type":"VEC3"
		},
		{
			"bufferView":7,
			"componentType":5123,
			"count":168,
			"type":"SCALAR"
		},
		{
			"bufferView":8,
			"componentType":5126,
			"count":3236,
			"max":[
				0.29225364327430725,
				0.8564658164978027,
				0.1829925775527954
			],
			"min":[
				-0.29225364327430725,
				-0.09785240888595581,
				-0.4299861192703247
			],
			"type":"VEC3"
		},
		{
			"bufferView":9,
			"componentType":5126,
			"count":3236,
			"type":"VEC2"
		},
		{
			"bufferView":10,
			"componentType":5126,
			"count":3236,
			"type":"VEC3"
		},
		{
			"bufferView":11,
			"componentType":5123,
			"count":15072,
			"type":"SCALAR"
		}
	],
	"bufferViews":[
		{
			"buffer":0,
			"byteLength":12912,
			"byteOffset":0,
			"target":34962
		},
		{
			"buffer":0,
			"byteLength":8608,
			"byteOffset":12912,
			"target":34962
		},
		{
			"buffer":0,
			"byteLength":12912,
			"byteOffset":21520,
			"target":34962
		},
		{
			"buffer":0,
			"byteLength":8088,
			"byteOffset":34432,
			"target":34963
		},
		{
			"buffer":0,
			"byteLength":816,
			"byteOffset":42520,
			"target":34962
		},
		{
			"buffer":0,
			"byteLength":544,
			"byteOffset":43336,
			"target":34962
		},
		{
			"buffer":0,
			"byteLength":816,
			"byteOffset":43880,
			"target":34962
		},
		{
			"buffer":0,
			"byteLength":336,
			"byteOffset":44696,
			"target":34963
		},
		{
			"buffer":0,
			"byteLength":38832,
			"byteOffset":45032,
			"target":34962
		},
		{
			"buffer":0,
			"byteLength":25888,
			"byteOffset":83864,
			"target":34962
		},
		{
			"buffer":0,
			"byteLength":38832,
			"byteOffset":109752,
			"target":34962
		},
		{
			"buffer":0,
			"byteLength":30144,
			"byteOffset":148584,
			"target":34963
		}
	],
	"samplers":[
		{
			"magFilter":9729,
			"minFilter":9987
		}
	],
	"buffers":[
		{
			"byteLength":178728,
			"uri":"arm3.bin"
		}
	]
}
