{
	"asset":{
		"generator":"Khronos glTF Blender I/O v3.5.30",
		"version":"2.0"
	},
	"extensionsUsed":[
		"KHR_materials_specular",
		"KHR_materials_ior"
	],
	"scene":0,
	"scenes":[
		{
			"name":"Scene",
			"nodes":[
				0
			]
		}
	],
	"nodes":[
		{
			"mesh":0,
			"name":"Cube.002",
			"scale":[
				1.582982063293457,
				1.582982063293457,
				1.582982063293457
			]
		}
	],
	"materials":[
		{
			"doubleSided":true,
			"extensions":{
				"KHR_materials_specular":{
					"specularColorFactor":[
						2.371357614441398,
						2.371357614441398,
						2.371357614441398
					]
				},
				"KHR_materials_ior":{
					"ior":1.4500000476837158
				}
			},
			"name":"Material.001",
			"normalTexture":{
				"index":0
			},
			"pbrMetallicRoughness":{
				"baseColorTexture":{
					"index":1
				},
				"metallicFactor":0,
				"roughnessFactor":0.5
			}
		},
		{
			"doubleSided":true,
			"extensions":{
				"KHR_materials_specular":{
					"specularColorFactor":[
						2.371357614441398,
						2.371357614441398,
						2.371357614441398
					]
				},
				"KHR_materials_ior":{
					"ior":1.4500000476837158
				}
			},
			"name":"Material.003",
			"normalTexture":{
				"index":2,
				"scale":2
			},
			"pbrMetallicRoughness":{
				"baseColorTexture":{
					"index":3
				},
				"metallicFactor":0,
				"roughnessFactor":0.5
			}
		},
		{
			"doubleSided":true,
			"name":"Material.004",
			"pbrMetallicRoughness":{
				"baseColorTexture":{
					"index":4
				},
				"metallicFactor":0,
				"roughnessFactor":0.5
			}
		}
	],
	"meshes":[
		{
			"name":"Cube.006",
			"primitives":[
				{
					"attributes":{
						"POSITION":0,
						"TEXCOORD_0":1,
						"NORMAL":2
					},
					"indices":3,
					"material":0
				},
				{
					"attributes":{
						"POSITION":4,
						"TEXCOORD_0":5,
						"NORMAL":6
					},
					"indices":7,
					"material":1
				},
				{
					"attributes":{
						"POSITION":8,
						"TEXCOORD_0":9,
						"NORMAL":10
					},
					"indices":11,
					"material":2
				}
			]
		}
	],
	"textures":[
		{
			"sampler":0,
			"source":0
		},
		{
			"sampler":0,
			"source":1
		},
		{
			"sampler":0,
			"source":0
		},
		{
			"sampler":0,
			"source":2
		},
		{
			"sampler":0,
			"source":1
		}
	],
	"images":[
		{
			"mimeType":"image/jpeg",
			"name":"worn-shiny-metal-Normal-ogl",
			"uri":"Textures/worn-shiny-metal-Normal-ogl.jpg"
		},
		{
			"mimeType":"image/jpeg",
			"name":"worn-shiny-metal-albedo",
			"uri":"Textures/worn-shiny-metal-albedo.jpg"
		},
		{
			"mimeType":"image/jpeg",
			"name":"orange_metal_texture_red2",
			"uri":"Textures/orange_metal_texture_red2.jpg"
		}
	],
	"accessors":[
		{
			"bufferView":0,
			"componentType":5126,
			"count":72,
			"max":[
				0.19999998807907104,
				0.27965402603149414,
				0.19841915369033813
			],
			"min":[
				-0.19999998807907104,
				0.07965400815010071,
				-0.20158082246780396
			],
			"type":"VEC3"
		},
		{
			"bufferView":1,
			"componentType":5126,
			"count":72,
			"type":"VEC2"
		},
		{
			"bufferView":2,
			"componentType":5126,
			"count":72,
			"type":"VEC3"
		},
		{
			"bufferView":3,
			"componentType":5123,
			"count":132,
			"type":"SCALAR"
		},
		{
			"bufferView":4,
			"componentType":5126,
			"count":1879,
			"max":[
				0.3792000412940979,
				0.07965400815010071,
				0.3792000412940979
			],
			"min":[
				-0.3792000412940979,
				-0.061219602823257446,
				-0.3792000412940979
			],
			"type":"VEC3"
		},
		{
			"bufferView":5,
			"componentType":5126,
			"count":1879,
			"type":"VEC2"
		},
		{
			"bufferView":6,
			"componentType":5126,
			"count":1879,
			"type":"VEC3"
		},
		{
			"bufferView":7,
			"componentType":5123,
			"count":2868,
			"type":"SCALAR"
		},
		{
			"bufferView":8,
			"componentType":5126,
			"count":1595,
			"max":[
				0.33481132984161377,
				0.07285696268081665,
				0.33481115102767944
			],
			"min":[
				-0.3348110616207123,
				-0.05348688364028931,
				-0.3348112404346466
			],
			"type":"VEC3"
		},
		{
			"bufferView":9,
			"componentType":5126,
			"count":1595,
			"type":"VEC2"
		},
		{
			"bufferView":10,
			"componentType":5126,
			"count":1595,
			"type":"VEC3"
		},
		{
			"bufferView":11,
			"componentType":5123,
			"count":2832,
			"type":"SCALAR"
		}
	],
	"bufferViews":[
		{
			"buffer":0,
			"byteLength":864,
			"byteOffset":0,
			"target":34962
		},
		{
			"buffer":0,
			"byteLength":576,
			"byteOffset":864,
			"target":34962
		},
		{
			"buffer":0,
			"byteLength":864,
			"byteOffset":1440,
			"target":34962
		},
		{
			"buffer":0,
			"byteLength":264,
			"byteOffset":2304,
			"target":34963
		},
		{
			"buffer":0,
			"byteLength":22548,
			"byteOffset":2568,
			"target":34962
		},
		{
			"buffer":0,
			"byteLength":15032,
			"byteOffset":25116,
			"target":34962
		},
		{
			"buffer":0,
			"byteLength":22548,
			"byteOffset":40148,
			"target":34962
		},
		{
			"buffer":0,
			"byteLength":5736,
			"byteOffset":62696,
			"target":34963
		},
		{
			"buffer":0,
			"byteLength":19140,
			"byteOffset":68432,
			"target":34962
		},
		{
			"buffer":0,
			"byteLength":12760,
			"byteOffset":87572,
			"target":34962
		},
		{
			"buffer":0,
			"byteLength":19140,
			"byteOffset":100332,
			"target":34962
		},
		{
			"buffer":0,
			"byteLength":5664,
			"byteOffset":119472,
			"target":34963
		}
	],
	"samplers":[
		{
			"magFilter":9729,
			"minFilter":9987
		}
	],
	"buffers":[
		{
			"byteLength":125136,
			"uri":"armbase.bin"
		}
	]
}
