{
	"asset":{
		"generator":"Khronos glTF Blender I/O v3.5.30",
		"version":"2.0"
	},
	"extensionsUsed":[
		"KHR_materials_specular",
		"KHR_materials_ior"
	],
	"scene":0,
	"scenes":[
		{
			"name":"Scene",
			"nodes":[
				0
			]
		}
	],
	"nodes":[
		{
			"mesh":0,
			"name":"Cone"
		}
	],
	"materials":[
		{
			"doubleSided":true,
			"extensions":{
				"KHR_materials_specular":{
					"specularColorFactor":[
						0.25869357624952505,
						0.25869357624952505,
						0.25869357624952505
					]
				},
				"KHR_materials_ior":{
					"ior":1.4500000476837158
				}
			},
			"name":"Material.002",
			"pbrMetallicRoughness":{
				"baseColorTexture":{
					"index":0
				},
				"metallicFactor":0,
				"roughnessFactor":0.2545454204082489
			}
		},
		{
			"doubleSided":true,
			"name":"Material.004",
			"pbrMetallicRoughness":{
				"baseColorTexture":{
					"index":1
				},
				"metallicFactor":0,
				"roughnessFactor":0.5
			}
		},
		{
			"doubleSided":true,
			"extensions":{
				"KHR_materials_specular":{
					"specularColorFactor":[
						2.371357614441398,
						2.371357614441398,
						2.371357614441398
					]
				},
				"KHR_materials_ior":{
					"ior":1.4500000476837158
				}
			},
			"name":"Material.003",
			"normalTexture":{
				"index":2,
				"scale":2
			},
			"pbrMetallicRoughness":{
				"baseColorTexture":{
					"index":3
				},
				"metallicFactor":0,
				"roughnessFactor":0.5
			}
		}
	],
	"meshes":[
		{
			"name":"Cone",
			"primitives":[
				{
					"attributes":{
						"POSITION":0,
						"TEXCOORD_0":1,
						"NORMAL":2
					},
					"indices":3,
					"material":0
				},
				{
					"attributes":{
						"POSITION":4,
						"TEXCOORD_0":5,
						"NORMAL":6
					},
					"indices":7,
					"material":1
				},
				{
					"attributes":{
						"POSITION":8,
						"TEXCOORD_0":9,
						"NORMAL":10
					},
					"indices":11,
					"material":2
				}
			]
		}
	],
	"textures":[
		{
			"sampler":0,
			"source":0
		},
		{
			"sampler":0,
			"source":1
		},
		{
			"sampler":0,
			"source":2
		},
		{
			"sampler":0,
			"source":3
		}
	],
	"images":[
		{
			"mimeType":"image/jpeg",
			"name":"dark_grey",
			"uri":"Textures/dark_grey.jpg"
		},
		{
			"mimeType":"image/jpeg",
			"name":"worn-shiny-metal-albedo",
			"uri":"Textures/worn-shiny-metal-albedo.jpg"
		},
		{
			"mimeType":"image/jpeg",
			"name":"worn-shiny-metal-Normal-ogl",
			"uri":"Textures/worn-shiny-metal-Normal-ogl.jpg"
		},
		{
			"mimeType":"image/jpeg",
			"name":"orange_metal_texture_red2",
			"uri":"Textures/orange_metal_texture_red2.jpg"
		}
	],
	"accessors":[
		{
			"bufferView":0,
			"componentType":5126,
			"count":768,
			"max":[
				1.389817237854004,
				0.07883858680725098,
				1.7464312314987183
			],
			"min":[
				-1.389817237854004,
				4.76837158203125e-07,
				-1.7464312314987183
			],
			"type":"VEC3"
		},
		{
			"bufferView":1,
			"componentType":5126,
			"count":768,
			"type":"VEC2"
		},
		{
			"bufferView":2,
			"componentType":5126,
			"count":768,
			"type":"VEC3"
		},
		{
			"bufferView":3,
			"componentType":5123,
			"count":3792,
			"type":"SCALAR"
		},
		{
			"bufferView":4,
			"componentType":5126,
			"count":2296,
			"max":[
				1.1250975131988525,
				0.6496238708496094,
				1.4829999208450317
			],
			"min":[
				-1.1250975131988525,
				0.035623788833618164,
				-1.4829999208450317
			],
			"type":"VEC3"
		},
		{
			"bufferView":5,
			"componentType":5126,
			"count":2296,
			"type":"VEC2"
		},
		{
			"bufferView":6,
			"componentType":5126,
			"count":2296,
			"type":"VEC3"
		},
		{
			"bufferView":7,
			"componentType":5123,
			"count":5940,
			"type":"SCALAR"
		},
		{
			"bufferView":8,
			"componentType":5126,
			"count":2388,
			"max":[
				1.1942518949508667,
				0.6196238398551941,
				1.5199998617172241
			],
			"min":[
				-1.1942518949508667,
				0.08662384748458862,
				-1.5199998617172241
			],
			"type":"VEC3"
		},
		{
			"bufferView":9,
			"componentType":5126,
			"count":2388,
			"type":"VEC2"
		},
		{
			"bufferView":10,
			"componentType":5126,
			"count":2388,
			"type":"VEC3"
		},
		{
			"bufferView":11,
			"componentType":5123,
			"count":6672,
			"type":"SCALAR"
		}
	],
	"bufferViews":[
		{
			"buffer":0,
			"byteLength":9216,
			"byteOffset":0,
			"target":34962
		},
		{
			"buffer":0,
			"byteLength":6144,
			"byteOffset":9216,
			"target":34962
		},
		{
			"buffer":0,
			"byteLength":9216,
			"byteOffset":15360,
			"target":34962
		},
		{
			"buffer":0,
			"byteLength":7584,
			"byteOffset":24576,
			"target":34963
		},
		{
			"buffer":0,
			"byteLength":27552,
			"byteOffset":32160,
			"target":34962
		},
		{
			"buffer":0,
			"byteLength":18368,
			"byteOffset":59712,
			"target":34962
		},
		{
			"buffer":0,
			"byteLength":27552,
			"byteOffset":78080,
			"target":34962
		},
		{
			"buffer":0,
			"byteLength":11880,
			"byteOffset":105632,
			"target":34963
		},
		{
			"buffer":0,
			"byteLength":28656,
			"byteOffset":117512,
			"target":34962
		},
		{
			"buffer":0,
			"byteLength":19104,
			"byteOffset":146168,
			"target":34962
		},
		{
			"buffer":0,
			"byteLength":28656,
			"byteOffset":165272,
			"target":34962
		},
		{
			"buffer":0,
			"byteLength":13344,
			"byteOffset":193928,
			"target":34963
		}
	],
	"samplers":[
		{
			"magFilter":9729,
			"minFilter":9987
		}
	],
	"buffers":[
		{
			"byteLength":207272,
			"uri":"armstand.bin"
		}
	]
}
