{
    "asset" : {
        "generator" : "Khronos glTF Blender I/O v3.3.32",
        "version" : "2.0"
    },
    "scene" : 0,
    "scenes" : [
        {
            "name" : "Scene",
            "nodes" : [
                0
            ]
        }
    ],
    "nodes" : [
        {
            "mesh" : 0,
            "name" : "Crate_low",
            "rotation" : [
                1,
                0,
                0,
                0
            ]
        }
    ],
    "materials" : [
        {
            "doubleSided" : true,
            "name" : "Material_0",
            "normalTexture" : {
                "index" : 0
            },
            "occlusionTexture" : {
                "index" : 1,
                "strength" : 0.5
            },
            "pbrMetallicRoughness" : {
                "baseColorTexture" : {
                    "index" : 2
                },
                "metallicFactor" : 0,
                "metallicRoughnessTexture" : {
                    "index" : 1
                }
            }
        }
    ],
    "meshes" : [
        {
            "name" : "Mesh_0",
            "primitives" : [
                {
                    "attributes" : {
                        "POSITION" : 0,
                        "NORMAL" : 1,
                        "TANGENT" : 2,
                        "TEXCOORD_0" : 3
                    },
                    "indices" : 4,
                    "material" : 0
                }
            ]
        }
    ],
    "textures" : [
        {
            "sampler" : 0,
            "source" : 0
        },
        {
            "sampler" : 1,
            "source" : 1
        },
        {
            "sampler" : 0,
            "source" : 2
        }
    ],
    "images" : [
        {
            "mimeType" : "image/jpeg",
            "name" : "box3_normal_1",
            "uri" : "Textures/box3_normal_1.jpg"
        },
        {
            "mimeType" : "image/jpeg",
            "name" : "box3_occlusion_1-box3_metallicRoughness_1",
            "uri" : "Textures/box3_occlusion_1-box3_metallicRoughness_1.jpg"
        },
        {
            "mimeType" : "image/jpeg",
            "name" : "box3_base_1",
            "uri" : "Textures/box3_base_1.jpg"
        }
    ],
    "accessors" : [
        {
            "bufferView" : 0,
            "componentType" : 5126,
            "count" : 210,
            "max" : [
                1.012236475944519,
                1.0139045715332031,
                0.9861422777175903
            ],
            "min" : [
                -0.9903385043144226,
                -0.9885579347610474,
                -1.0144423246383667
            ],
            "type" : "VEC3"
        },
        {
            "bufferView" : 1,
            "componentType" : 5126,
            "count" : 210,
            "type" : "VEC3"
        },
        {
            "bufferView" : 2,
            "componentType" : 5126,
            "count" : 210,
            "type" : "VEC4"
        },
        {
            "bufferView" : 3,
            "componentType" : 5126,
            "count" : 210,
            "type" : "VEC2"
        },
        {
            "bufferView" : 4,
            "componentType" : 5123,
            "count" : 462,
            "type" : "SCALAR"
        }
    ],
    "bufferViews" : [
        {
            "buffer" : 0,
            "byteLength" : 2520,
            "byteOffset" : 0,
            "target" : 34962
        },
        {
            "buffer" : 0,
            "byteLength" : 2520,
            "byteOffset" : 2520,
            "target" : 34962
        },
        {
            "buffer" : 0,
            "byteLength" : 3360,
            "byteOffset" : 5040,
            "target" : 34962
        },
        {
            "buffer" : 0,
            "byteLength" : 1680,
            "byteOffset" : 8400,
            "target" : 34962
        },
        {
            "buffer" : 0,
            "byteLength" : 924,
            "byteOffset" : 10080,
            "target" : 34963
        }
    ],
    "samplers" : [
        {
            "magFilter" : 9729,
            "minFilter" : 9987
        },
        {
            "magFilter" : 9729,
            "minFilter" : 9987,
            "wrapS" : 33071,
            "wrapT" : 33071
        }
    ],
    "buffers" : [
        {
            "byteLength" : 11004,
            "uri" : "box_wooden.bin"
        }
    ]
}
