{
	"asset":{
		"generator":"Khronos glTF Blender I/O v3.5.30",
		"version":"2.0"
	},
	"scene":0,
	"scenes":[
		{
			"name":"Scene",
			"nodes":[
				0,
				1,
				2,
				3
			]
		}
	],
	"nodes":[
		{
			"mesh":0,
			"name":"Cube.002",
			"rotation":[
				0,
				0.7071068286895752,
				0,
				0.7071068286895752
			],
			"scale":[
				0.071761354804039,
				0.071761354804039,
				0.11197677254676819
			],
			"translation":[
				0,
				0.00023258670989889652,
				0.35433292388916016
			]
		},
		{
			"mesh":1,
			"name":"Cube.003",
			"rotation":[
				0,
				0.7071068286895752,
				0,
				0.7071068286895752
			],
			"scale":[
				0.34143295884132385,
				0.34143295884132385,
				0.34143295884132385
			],
			"translation":[
				0,
				1.2888838682556525e-05,
				-0.29366812109947205
			]
		},
		{
			"mesh":2,
			"name":"Cylinder",
			"rotation":[
				0.5,
				0.5,
				-0.5,
				0.5
			],
			"scale":[
				0.34143295884132385,
				0.34143295884132385,
				0.34143295884132385
			],
			"translation":[
				0,
				0.43303409218788147,
				0.294955313205719
			]
		},
		{
			"mesh":3,
			"name":"Cylinder.006",
			"rotation":[
				0.5,
				0.5,
				-0.5,
				0.5
			],
			"scale":[
				0.033181268721818924,
				0.04482940956950188,
				0.033181268721818924
			],
			"translation":[
				0,
				0.43303409218788147,
				0.294955313205719
			]
		}
	],
	"materials":[
		{
			"doubleSided":true,
			"name":"black",
			"pbrMetallicRoughness":{
				"baseColorTexture":{
					"index":0
				},
				"metallicFactor":0,
				"roughnessFactor":0.5
			}
		},
		{
			"doubleSided":true,
			"name":"white",
			"pbrMetallicRoughness":{
				"baseColorTexture":{
					"index":1
				},
				"metallicFactor":0,
				"roughnessFactor":0.5
			}
		}
	],
	"meshes":[
		{
			"name":"Cube.002",
			"primitives":[
				{
					"attributes":{
						"COLOR_0":0,
						"POSITION":1,
						"TEXCOORD_0":2,
						"NORMAL":3
					},
					"indices":4,
					"material":0
				}
			]
		},
		{
			"name":"Mesh",
			"primitives":[
				{
					"attributes":{
						"COLOR_0":5,
						"POSITION":6,
						"TEXCOORD_0":7,
						"NORMAL":8
					},
					"indices":9,
					"material":0
				},
				{
					"attributes":{
						"COLOR_0":10,
						"POSITION":11,
						"TEXCOORD_0":12,
						"NORMAL":13
					},
					"indices":14,
					"material":1
				}
			]
		},
		{
			"name":"Cylinder",
			"primitives":[
				{
					"attributes":{
						"COLOR_0":15,
						"POSITION":16,
						"TEXCOORD_0":17,
						"NORMAL":18
					},
					"indices":19,
					"material":1
				},
				{
					"attributes":{
						"COLOR_0":20,
						"POSITION":21,
						"TEXCOORD_0":22,
						"NORMAL":23
					},
					"indices":24,
					"material":0
				}
			]
		},
		{
			"name":"Cylinder.006",
			"primitives":[
				{
					"attributes":{
						"COLOR_0":25,
						"POSITION":26,
						"TEXCOORD_0":27,
						"NORMAL":28
					},
					"indices":29,
					"material":1
				}
			]
		}
	],
	"textures":[
		{
			"sampler":0,
			"source":0
		},
		{
			"sampler":0,
			"source":0
		}
	],
	"images":[
		{
			"mimeType":"image/png",
			"name":"cameracolors",
			"uri":"Textures/cameracolors.png"
		}
	],
	"accessors":[
		{
			"bufferView":0,
			"componentType":5123,
			"count":206,
			"normalized":true,
			"type":"VEC4"
		},
		{
			"bufferView":1,
			"componentType":5126,
			"count":206,
			"max":[
				9.324061393737793,
				6.5674004554748535,
				1.5307230949401855
			],
			"min":[
				-1,
				-3.2780075073242188,
				-1.4793370962142944
			],
			"type":"VEC3"
		},
		{
			"bufferView":2,
			"componentType":5126,
			"count":206,
			"type":"VEC2"
		},
		{
			"bufferView":3,
			"componentType":5126,
			"count":206,
			"type":"VEC3"
		},
		{
			"bufferView":4,
			"componentType":5123,
			"count":360,
			"type":"SCALAR"
		},
		{
			"bufferView":5,
			"componentType":5123,
			"count":1469,
			"normalized":true,
			"type":"VEC4"
		},
		{
			"bufferView":6,
			"componentType":5126,
			"count":1469,
			"max":[
				1.0304737091064453,
				0.8421114087104797,
				1.2552647590637207
			],
			"min":[
				-0.6848036050796509,
				-0.8421114087104797,
				-1.2552647590637207
			],
			"type":"VEC3"
		},
		{
			"bufferView":7,
			"componentType":5126,
			"count":1469,
			"type":"VEC2"
		},
		{
			"bufferView":8,
			"componentType":5126,
			"count":1469,
			"type":"VEC3"
		},
		{
			"bufferView":9,
			"componentType":5123,
			"count":4704,
			"type":"SCALAR"
		},
		{
			"bufferView":10,
			"componentType":5123,
			"count":725,
			"normalized":true,
			"type":"VEC4"
		},
		{
			"bufferView":11,
			"componentType":5126,
			"count":725,
			"max":[
				1.0863817930221558,
				0.8730994462966919,
				1.3053697347640991
			],
			"min":[
				-0.6848036050796509,
				-0.8730994462966919,
				-1.3053697347640991
			],
			"type":"VEC3"
		},
		{
			"bufferView":12,
			"componentType":5126,
			"count":725,
			"type":"VEC2"
		},
		{
			"bufferView":13,
			"componentType":5126,
			"count":725,
			"type":"VEC3"
		},
		{
			"bufferView":14,
			"componentType":5123,
			"count":2784,
			"type":"SCALAR"
		},
		{
			"bufferView":15,
			"componentType":5123,
			"count":768,
			"normalized":true,
			"type":"VEC4"
		},
		{
			"bufferView":16,
			"componentType":5126,
			"count":768,
			"max":[
				2.0981903076171875,
				0.28097274899482727,
				0.7064648270606995
			],
			"min":[
				-0.7064648270606995,
				-0.28097274899482727,
				-0.7064648270606995
			],
			"type":"VEC3"
		},
		{
			"bufferView":17,
			"componentType":5126,
			"count":768,
			"type":"VEC2"
		},
		{
			"bufferView":18,
			"componentType":5126,
			"count":768,
			"type":"VEC3"
		},
		{
			"bufferView":19,
			"componentType":5123,
			"count":3072,
			"type":"SCALAR"
		},
		{
			"bufferView":20,
			"componentType":5123,
			"count":1608,
			"normalized":true,
			"type":"VEC4"
		},
		{
			"bufferView":21,
			"componentType":5126,
			"count":1608,
			"max":[
				2.0981903076171875,
				0.28097274899482727,
				0.7064648270606995
			],
			"min":[
				-0.7064648270606995,
				-0.28097274899482727,
				-0.7064648270606995
			],
			"type":"VEC3"
		},
		{
			"bufferView":22,
			"componentType":5126,
			"count":1608,
			"type":"VEC2"
		},
		{
			"bufferView":23,
			"componentType":5126,
			"count":1608,
			"type":"VEC3"
		},
		{
			"bufferView":24,
			"componentType":5123,
			"count":6912,
			"type":"SCALAR"
		},
		{
			"bufferView":25,
			"componentType":5123,
			"count":1021,
			"normalized":true,
			"type":"VEC4"
		},
		{
			"bufferView":26,
			"componentType":5126,
			"count":1021,
			"max":[
				15.454072952270508,
				5.094118118286133,
				18.487518310546875
			],
			"min":[
				-4.389377593994141,
				-4.098371982574463,
				-1.610313057899475
			],
			"type":"VEC3"
		},
		{
			"bufferView":27,
			"componentType":5126,
			"count":1021,
			"type":"VEC2"
		},
		{
			"bufferView":28,
			"componentType":5126,
			"count":1021,
			"type":"VEC3"
		},
		{
			"bufferView":29,
			"componentType":5123,
			"count":2862,
			"type":"SCALAR"
		}
	],
	"bufferViews":[
		{
			"buffer":0,
			"byteLength":1648,
			"byteOffset":0,
			"target":34962
		},
		{
			"buffer":0,
			"byteLength":2472,
			"byteOffset":1648,
			"target":34962
		},
		{
			"buffer":0,
			"byteLength":1648,
			"byteOffset":4120,
			"target":34962
		},
		{
			"buffer":0,
			"byteLength":2472,
			"byteOffset":5768,
			"target":34962
		},
		{
			"buffer":0,
			"byteLength":720,
			"byteOffset":8240,
			"target":34963
		},
		{
			"buffer":0,
			"byteLength":11752,
			"byteOffset":8960,
			"target":34962
		},
		{
			"buffer":0,
			"byteLength":17628,
			"byteOffset":20712,
			"target":34962
		},
		{
			"buffer":0,
			"byteLength":11752,
			"byteOffset":38340,
			"target":34962
		},
		{
			"buffer":0,
			"byteLength":17628,
			"byteOffset":50092,
			"target":34962
		},
		{
			"buffer":0,
			"byteLength":9408,
			"byteOffset":67720,
			"target":34963
		},
		{
			"buffer":0,
			"byteLength":5800,
			"byteOffset":77128,
			"target":34962
		},
		{
			"buffer":0,
			"byteLength":8700,
			"byteOffset":82928,
			"target":34962
		},
		{
			"buffer":0,
			"byteLength":5800,
			"byteOffset":91628,
			"target":34962
		},
		{
			"buffer":0,
			"byteLength":8700,
			"byteOffset":97428,
			"target":34962
		},
		{
			"buffer":0,
			"byteLength":5568,
			"byteOffset":106128,
			"target":34963
		},
		{
			"buffer":0,
			"byteLength":6144,
			"byteOffset":111696,
			"target":34962
		},
		{
			"buffer":0,
			"byteLength":9216,
			"byteOffset":117840,
			"target":34962
		},
		{
			"buffer":0,
			"byteLength":6144,
			"byteOffset":127056,
			"target":34962
		},
		{
			"buffer":0,
			"byteLength":9216,
			"byteOffset":133200,
			"target":34962
		},
		{
			"buffer":0,
			"byteLength":6144,
			"byteOffset":142416,
			"target":34963
		},
		{
			"buffer":0,
			"byteLength":12864,
			"byteOffset":148560,
			"target":34962
		},
		{
			"buffer":0,
			"byteLength":19296,
			"byteOffset":161424,
			"target":34962
		},
		{
			"buffer":0,
			"byteLength":12864,
			"byteOffset":180720,
			"target":34962
		},
		{
			"buffer":0,
			"byteLength":19296,
			"byteOffset":193584,
			"target":34962
		},
		{
			"buffer":0,
			"byteLength":13824,
			"byteOffset":212880,
			"target":34963
		},
		{
			"buffer":0,
			"byteLength":8168,
			"byteOffset":226704,
			"target":34962
		},
		{
			"buffer":0,
			"byteLength":12252,
			"byteOffset":234872,
			"target":34962
		},
		{
			"buffer":0,
			"byteLength":8168,
			"byteOffset":247124,
			"target":34962
		},
		{
			"buffer":0,
			"byteLength":12252,
			"byteOffset":255292,
			"target":34962
		},
		{
			"buffer":0,
			"byteLength":5724,
			"byteOffset":267544,
			"target":34963
		}
	],
	"samplers":[
		{
			"magFilter":9729,
			"minFilter":9987
		}
	],
	"buffers":[
		{
			"byteLength":273268,
			"uri":"camera.bin"
		}
	]
}
