{
	"asset":{
		"generator":"Khronos glTF Blender I/O v3.5.30",
		"version":"2.0"
	},
	"extensionsUsed":[
		"KHR_materials_specular",
		"KHR_materials_ior"
	],
	"scene":0,
	"scenes":[
		{
			"name":"Scene",
			"nodes":[
				0
			]
		}
	],
	"nodes":[
		{
			"mesh":0,
			"name":"Cylinder.017",
			"rotation":[
				0,
				0,
				-0.7071068286895752,
				0.7071068286895752
			],
			"scale":[
				0.42000001668930054,
				0.42000001668930054,
				0.42000001668930054
			]
		}
	],
	"materials":[
		{
			"doubleSided":true,
			"name":"Material.004",
			"pbrMetallicRoughness":{
				"baseColorTexture":{
					"index":0
				},
				"metallicFactor":0,
				"roughnessFactor":0.5
			}
		},
		{
			"doubleSided":true,
			"extensions":{
				"KHR_materials_specular":{
					"specularColorFactor":[
						0.25869357624952505,
						0.25869357624952505,
						0.25869357624952505
					]
				},
				"KHR_materials_ior":{
					"ior":1.4500000476837158
				}
			},
			"name":"Material.002",
			"pbrMetallicRoughness":{
				"baseColorTexture":{
					"index":1
				},
				"metallicFactor":0,
				"roughnessFactor":0.2545454204082489
			}
		},
		{
			"doubleSided":true,
			"extensions":{
				"KHR_materials_specular":{
					"specularColorFactor":[
						2.371357614441398,
						2.371357614441398,
						2.371357614441398
					]
				},
				"KHR_materials_ior":{
					"ior":1.4500000476837158
				}
			},
			"name":"Material.001",
			"normalTexture":{
				"index":2
			},
			"pbrMetallicRoughness":{
				"baseColorTexture":{
					"index":3
				},
				"metallicFactor":0,
				"roughnessFactor":0.5
			}
		}
	],
	"meshes":[
		{
			"name":"Cylinder.018",
			"primitives":[
				{
					"attributes":{
						"POSITION":0,
						"TEXCOORD_0":1,
						"NORMAL":2
					},
					"indices":3,
					"material":0
				},
				{
					"attributes":{
						"POSITION":4,
						"TEXCOORD_0":5,
						"NORMAL":6
					},
					"indices":7,
					"material":1
				},
				{
					"attributes":{
						"POSITION":8,
						"TEXCOORD_0":9,
						"NORMAL":10
					},
					"indices":11,
					"material":2
				}
			]
		}
	],
	"textures":[
		{
			"sampler":0,
			"source":0
		},
		{
			"sampler":0,
			"source":1
		},
		{
			"sampler":0,
			"source":2
		},
		{
			"sampler":0,
			"source":0
		}
	],
	"images":[
		{
			"mimeType":"image/jpeg",
			"name":"worn-shiny-metal-albedo",
			"uri":"Textures/worn-shiny-metal-albedo.jpg"
		},
		{
			"mimeType":"image/jpeg",
			"name":"dark_grey",
			"uri":"Textures/dark_grey.jpg"
		},
		{
			"mimeType":"image/jpeg",
			"name":"worn-shiny-metal-Normal-ogl",
			"uri":"Textures/worn-shiny-metal-Normal-ogl.jpg"
		}
	],
	"accessors":[
		{
			"bufferView":0,
			"componentType":5126,
			"count":976,
			"max":[
				1.0980076789855957,
				0.13601082563400269,
				1.5953555703163147e-06
			],
			"min":[
				-1.0697293281555176,
				-0.13324496150016785,
				-2.1712026596069336
			],
			"type":"VEC3"
		},
		{
			"bufferView":1,
			"componentType":5126,
			"count":976,
			"type":"VEC2"
		},
		{
			"bufferView":2,
			"componentType":5126,
			"count":976,
			"type":"VEC3"
		},
		{
			"bufferView":3,
			"componentType":5123,
			"count":2748,
			"type":"SCALAR"
		},
		{
			"bufferView":4,
			"componentType":5126,
			"count":832,
			"max":[
				0.6683536171913147,
				0.02373531460762024,
				-2.945659637451172
			],
			"min":[
				-0.6400762796401978,
				-0.12714026868343353,
				-3.215125799179077
			],
			"type":"VEC3"
		},
		{
			"bufferView":5,
			"componentType":5126,
			"count":832,
			"type":"VEC2"
		},
		{
			"bufferView":6,
			"componentType":5126,
			"count":832,
			"type":"VEC3"
		},
		{
			"bufferView":7,
			"componentType":5123,
			"count":3816,
			"type":"SCALAR"
		},
		{
			"bufferView":8,
			"componentType":5126,
			"count":19191,
			"max":[
				1.2231014966964722,
				0.399461954832077,
				0.055515266954898834
			],
			"min":[
				-1.1948256492614746,
				-0.4036259651184082,
				-3.207871198654175
			],
			"type":"VEC3"
		},
		{
			"bufferView":9,
			"componentType":5126,
			"count":19191,
			"type":"VEC2"
		},
		{
			"bufferView":10,
			"componentType":5126,
			"count":19191,
			"type":"VEC3"
		},
		{
			"bufferView":11,
			"componentType":5123,
			"count":93006,
			"type":"SCALAR"
		}
	],
	"bufferViews":[
		{
			"buffer":0,
			"byteLength":11712,
			"byteOffset":0,
			"target":34962
		},
		{
			"buffer":0,
			"byteLength":7808,
			"byteOffset":11712,
			"target":34962
		},
		{
			"buffer":0,
			"byteLength":11712,
			"byteOffset":19520,
			"target":34962
		},
		{
			"buffer":0,
			"byteLength":5496,
			"byteOffset":31232,
			"target":34963
		},
		{
			"buffer":0,
			"byteLength":9984,
			"byteOffset":36728,
			"target":34962
		},
		{
			"buffer":0,
			"byteLength":6656,
			"byteOffset":46712,
			"target":34962
		},
		{
			"buffer":0,
			"byteLength":9984,
			"byteOffset":53368,
			"target":34962
		},
		{
			"buffer":0,
			"byteLength":7632,
			"byteOffset":63352,
			"target":34963
		},
		{
			"buffer":0,
			"byteLength":230292,
			"byteOffset":70984,
			"target":34962
		},
		{
			"buffer":0,
			"byteLength":153528,
			"byteOffset":301276,
			"target":34962
		},
		{
			"buffer":0,
			"byteLength":230292,
			"byteOffset":454804,
			"target":34962
		},
		{
			"buffer":0,
			"byteLength":186012,
			"byteOffset":685096,
			"target":34963
		}
	],
	"samplers":[
		{
			"magFilter":9729,
			"minFilter":9987
		}
	],
	"buffers":[
		{
			"byteLength":871108,
			"uri":"claw.bin"
		}
	]
}
