{
	"asset":{
		"generator":"Khronos glTF Blender I/O v3.6.27",
		"version":"2.0"
	},
	"scene":0,
	"scenes":[
		{
			"name":"Scene",
			"nodes":[
				0
			]
		}
	],
	"nodes":[
		{
			"mesh":0,
			"name":"LOD3spShape",
			"scale":[
				0.009999999776482582,
				0.009999999776482582,
				0.009999999776482582
			]
		}
	],
	"materials":[
		{
			"name":"blinn3-fx",
			"pbrMetallicRoughness":{
				"baseColorTexture":{
					"index":0
				},
				"metallicFactor":0
			}
		}
	],
	"meshes":[
		{
			"name":"LOD3spShape",
			"primitives":[
				{
					"attributes":{
						"POSITION":0,
						"NORMAL":1,
						"TEXCOORD_0":2
					},
					"indices":3,
					"material":0
				}
			]
		}
	],
	"textures":[
		{
			"sampler":0,
			"source":0
		}
	],
	"images":[
		{
			"mimeType":"image/png",
			"name":"Duck_baseColor",
			"uri":"Textures/Duck_baseColor.png"
		}
	],
	"accessors":[
		{
			"bufferView":0,
			"componentType":5126,
			"count":2399,
			"max":[
				88.93023681640625,
				154.08840942382812,
				55.737430572509766
			],
			"min":[
				-76.54816436767578,
				0.04778488352894783,
				-59.51596450805664
			],
			"type":"VEC3"
		},
		{
			"bufferView":1,
			"componentType":5126,
			"count":2399,
			"type":"VEC3"
		},
		{
			"bufferView":2,
			"componentType":5126,
			"count":2399,
			"type":"VEC2"
		},
		{
			"bufferView":3,
			"componentType":5123,
			"count":12636,
			"type":"SCALAR"
		}
	],
	"bufferViews":[
		{
			"buffer":0,
			"byteLength":28788,
			"byteOffset":0,
			"target":34962
		},
		{
			"buffer":0,
			"byteLength":28788,
			"byteOffset":28788,
			"target":34962
		},
		{
			"buffer":0,
			"byteLength":19192,
			"byteOffset":57576,
			"target":34962
		},
		{
			"buffer":0,
			"byteLength":25272,
			"byteOffset":76768,
			"target":34963
		}
	],
	"samplers":[
		{
			"magFilter":9729,
			"minFilter":9987
		}
	],
	"buffers":[
		{
			"byteLength":102040,
			"uri":"Duck.bin"
		}
	]
}
