{
	"asset":{
		"generator":"Khronos glTF Blender I/O v3.5.30",
		"version":"2.0"
	},
	"extensionsUsed":[
		"KHR_materials_specular",
		"KHR_materials_ior"
	],
	"scene":0,
	"scenes":[
		{
			"name":"Scene",
			"nodes":[
				0
			]
		}
	],
	"nodes":[
		{
			"mesh":0,
			"name":"Cube.005",
			"scale":[
				1.266385793685913,
				1.582982063293457,
				1.582982063293457
			]
		}
	],
	"materials":[
		{
			"doubleSided":true,
			"extensions":{
				"KHR_materials_specular":{
					"specularColorFactor":[
						2.371357614441398,
						2.371357614441398,
						2.371357614441398
					]
				},
				"KHR_materials_ior":{
					"ior":1.4500000476837158
				}
			},
			"name":"Material.001",
			"normalTexture":{
				"index":0,
				"scale":2
			},
			"pbrMetallicRoughness":{
				"baseColorTexture":{
					"index":1
				},
				"metallicFactor":0,
				"roughnessFactor":0.5
			}
		},
		{
			"doubleSided":true,
			"extensions":{
				"KHR_materials_specular":{
					"specularColorFactor":[
						2.371357614441398,
						2.371357614441398,
						2.371357614441398
					]
				},
				"KHR_materials_ior":{
					"ior":1.4500000476837158
				}
			},
			"name":"Material.003",
			"normalTexture":{
				"index":2,
				"scale":2
			},
			"pbrMetallicRoughness":{
				"baseColorTexture":{
					"index":3
				},
				"metallicFactor":0,
				"roughnessFactor":0.5
			}
		},
		{
			"doubleSided":true,
			"name":"Material.004",
			"pbrMetallicRoughness":{
				"baseColorTexture":{
					"index":4
				},
				"metallicFactor":0,
				"roughnessFactor":0.5
			}
		}
	],
	"meshes":[
		{
			"name":"Cube.010",
			"primitives":[
				{
					"attributes":{
						"POSITION":0,
						"TEXCOORD_0":1,
						"NORMAL":2
					},
					"indices":3,
					"material":0
				},
				{
					"attributes":{
						"POSITION":4,
						"TEXCOORD_0":5,
						"NORMAL":6
					},
					"indices":7,
					"material":1
				},
				{
					"attributes":{
						"POSITION":8,
						"TEXCOORD_0":9,
						"NORMAL":10
					},
					"indices":11,
					"material":2
				}
			]
		}
	],
	"textures":[
		{
			"sampler":0,
			"source":0
		},
		{
			"sampler":0,
			"source":1
		},
		{
			"sampler":0,
			"source":0
		},
		{
			"sampler":0,
			"source":2
		},
		{
			"sampler":0,
			"source":1
		}
	],
	"images":[
		{
			"mimeType":"image/jpeg",
			"name":"worn-shiny-metal-Normal-ogl",
			"uri":"Textures/worn-shiny-metal-Normal-ogl.jpg"
		},
		{
			"mimeType":"image/jpeg",
			"name":"worn-shiny-metal-albedo",
			"uri":"Textures/worn-shiny-metal-albedo.jpg"
		},
		{
			"mimeType":"image/jpeg",
			"name":"orange_metal_texture_red2",
			"uri":"Textures/orange_metal_texture_red2.jpg"
		}
	],
	"accessors":[
		{
			"bufferView":0,
			"componentType":5126,
			"count":1782,
			"max":[
				0.20000001788139343,
				0.11702919006347656,
				1.1160919666290283
			],
			"min":[
				-0.20000001788139343,
				-0.11147011071443558,
				-0.04379606246948242
			],
			"type":"VEC3"
		},
		{
			"bufferView":1,
			"componentType":5126,
			"count":1782,
			"type":"VEC2"
		},
		{
			"bufferView":2,
			"componentType":5126,
			"count":1782,
			"type":"VEC3"
		},
		{
			"bufferView":3,
			"componentType":5123,
			"count":8148,
			"type":"SCALAR"
		},
		{
			"bufferView":4,
			"componentType":5126,
			"count":5493,
			"max":[
				0.22002100944519043,
				0.12265339493751526,
				0.7882923483848572
			],
			"min":[
				-0.22002100944519043,
				-0.1170940101146698,
				0.28400373458862305
			],
			"type":"VEC3"
		},
		{
			"bufferView":5,
			"componentType":5126,
			"count":5493,
			"type":"VEC2"
		},
		{
			"bufferView":6,
			"componentType":5126,
			"count":5493,
			"type":"VEC3"
		},
		{
			"bufferView":7,
			"componentType":5123,
			"count":26400,
			"type":"SCALAR"
		},
		{
			"bufferView":8,
			"componentType":5126,
			"count":884,
			"max":[
				0.23862051963806152,
				0.09565514326095581,
				0.7427024245262146
			],
			"min":[
				-0.23862051963806152,
				-0.09009577333927155,
				-0.016759097576141357
			],
			"type":"VEC3"
		},
		{
			"bufferView":9,
			"componentType":5126,
			"count":884,
			"type":"VEC2"
		},
		{
			"bufferView":10,
			"componentType":5126,
			"count":884,
			"type":"VEC3"
		},
		{
			"bufferView":11,
			"componentType":5123,
			"count":3720,
			"type":"SCALAR"
		}
	],
	"bufferViews":[
		{
			"buffer":0,
			"byteLength":21384,
			"byteOffset":0,
			"target":34962
		},
		{
			"buffer":0,
			"byteLength":14256,
			"byteOffset":21384,
			"target":34962
		},
		{
			"buffer":0,
			"byteLength":21384,
			"byteOffset":35640,
			"target":34962
		},
		{
			"buffer":0,
			"byteLength":16296,
			"byteOffset":57024,
			"target":34963
		},
		{
			"buffer":0,
			"byteLength":65916,
			"byteOffset":73320,
			"target":34962
		},
		{
			"buffer":0,
			"byteLength":43944,
			"byteOffset":139236,
			"target":34962
		},
		{
			"buffer":0,
			"byteLength":65916,
			"byteOffset":183180,
			"target":34962
		},
		{
			"buffer":0,
			"byteLength":52800,
			"byteOffset":249096,
			"target":34963
		},
		{
			"buffer":0,
			"byteLength":10608,
			"byteOffset":301896,
			"target":34962
		},
		{
			"buffer":0,
			"byteLength":7072,
			"byteOffset":312504,
			"target":34962
		},
		{
			"buffer":0,
			"byteLength":10608,
			"byteOffset":319576,
			"target":34962
		},
		{
			"buffer":0,
			"byteLength":7440,
			"byteOffset":330184,
			"target":34963
		}
	],
	"samplers":[
		{
			"magFilter":9729,
			"minFilter":9987
		}
	],
	"buffers":[
		{
			"byteLength":337624,
			"uri":"arm2.bin"
		}
	]
}
