<?xml version="1.0" standalone="no"?>
<!DOCTYPE svg PUBLIC "-//W3C//DTD SVG 1.1//EN" "http://www.w3.org/Graphics/SVG/1.1/DTD/svg11.dtd" >
<svg xmlns="http://www.w3.org/2000/svg" xmlns:xlink="http://www.w3.org/1999/xlink" version="1.1" viewBox="-10 0 531 512">
  <g transform="matrix(1 0 0 -1 0 409)">
   <path fill="currentColor"
d="M432.418 148.44q24.5029 0.543945 37.5713 21.7793q11.9785 21.7803 0 43.5605q-13.0684 21.2354 -37.5713 21.7793q-24.502 -0.543945 -37.5703 -21.7793q-11.9785 -21.7803 0 -43.5605q13.0684 -21.2354 37.5703 -21.7793v0zM432.418 270.408
q21.2363 0 39.2041 -10.3457v0v0q17.9688 -10.3457 28.8584 -28.8594q10.3457 -18.5117 10.3457 -39.2031t-10.3457 -39.2041q-10.8896 -18.5127 -28.8584 -28.8584q-17.9678 -10.3457 -39.2041 -10.3457q-7.55762 0 -14.7021 1.30957q-12.9277 2.37207 -24.502 9.03613
q-17.9678 10.3457 -28.8584 28.8584q-10.3457 18.5127 -10.3457 39.2041t10.3457 39.2031q10.8906 18.5137 28.8584 28.8594q17.9688 10.3457 39.2041 10.3457v0zM79.582 148.44q24.502 0.543945 37.5703 21.7793q11.9785 21.7803 0 43.5605
q-13.0684 21.2354 -37.5703 21.7793q-24.5029 -0.543945 -37.5713 -21.7793q-11.9785 -21.7803 0 -43.5605q13.0684 -21.2354 37.5713 -21.7793v0zM79.582 270.408q21.2354 0 39.2041 -10.3457v0v0q17.9678 -10.3457 28.8584 -28.8594q10.3457 -18.5117 10.3457 -39.2031
t-10.3457 -39.2041q-10.8906 -18.5127 -28.8584 -28.8584q-17.9688 -10.3457 -39.2041 -10.3457q-7.55762 0 -14.7012 1.30957q-12.9287 2.37207 -24.5029 9.03613q-17.9688 10.3457 -28.8584 28.8584q-10.3457 18.5127 -10.3457 39.2041t10.3457 39.2031
q10.8896 18.5137 28.8584 28.8594q17.9678 10.3457 39.2041 10.3457v0zM256 148.44q24.5029 0.543945 37.5703 21.7793q11.9785 21.7803 0 43.5605q-13.0674 21.2354 -37.5703 21.7793q-24.5029 -0.543945 -37.5703 -21.7793q-11.9785 -21.7803 0 -43.5605
q13.0674 -21.2354 37.5703 -21.7793v0zM256 270.408q21.2354 0 39.2031 -10.3457v0v0q17.9697 -10.3457 28.8594 -28.8594q10.3457 -18.5117 10.3457 -39.2031t-10.3457 -39.2041q-10.8896 -18.5127 -28.8594 -28.8584q-17.9678 -10.3457 -39.2031 -10.3457
q-7.55762 0 -14.7012 1.31055q-12.9287 2.37207 -24.502 9.03516q-17.9697 10.3457 -28.8594 28.8584q-10.3457 18.5127 -10.3457 39.2041t10.3457 39.2031q10.8896 18.5137 28.8594 28.8594q17.9678 10.3457 39.2031 10.3457v0z" />
  </g>

</svg>
